{"title":"kites 2010 720p BluRay nHD x264 (NhaNc3) - Hindi","uid":8359958,"size":2350555162,"categoryP":"video","categoryS":"hd___movies","magnet":"?xt=urn:btih:84559ee257a35aabe00ed7fca9d1b1802d274b5e&amp;dn=kites+2010+720p+BluRay+nHD+x264+%28NhaNc3%29+-+Hindi&amp;tr=udp%3A%2F%2Ftracker.openbittorrent.com%3A80&amp;tr=udp%3A%2F%2Fopen.demonii.com%3A1337&amp;tr=udp%3A%2F%2Ftracker.coppersurfer.tk%3A6969&amp;tr=udp%3A%2F%2Fexodus.desync.com%3A6969","seeders":2,"leechers":1,"uploader":"SJonam","files":1,"time":1365593810,"description":" &lt;a href=&quot;http://desibbrg.org/images/66952052392581364616.gif&quot; rel=&quot;nofollow&quot; target=&quot;_NEW&quot;&gt;http://desibbrg.org/images/66952052392581364616.gif&lt;/a&gt; &lt;a href=&quot;\nhttp://desibbrg.org/images/51619798344193885564.jpg&quot; rel=&quot;nofollow&quot; target=&quot;_NEW&quot;&gt;\nhttp://desibbrg.org/images/51619798344193885564.jpg&lt;/a&gt; &lt;a href=&quot;\nhttp://desibbrg.org/images/71090632131464686862.jpg&quot; rel=&quot;nofollow&quot; target=&quot;_NEW&quot;&gt;\nhttp://desibbrg.org/images/71090632131464686862.jpg&lt;/a&gt; &lt;a href=&quot;\nhttp://desibbrg.org/images/45937845957739974155.jpg&quot; rel=&quot;nofollow&quot; target=&quot;_NEW&quot;&gt;\nhttp://desibbrg.org/images/45937845957739974155.jpg&lt;/a&gt; &lt;a href=&quot;\nhttp://desibbrg.org/images/09750519740477894637.jpg&quot; rel=&quot;nofollow&quot; target=&quot;_NEW&quot;&gt;\nhttp://desibbrg.org/images/09750519740477894637.jpg&lt;/a&gt;\n\nMedia Info - \nVideo\nID : 1\nFormat : AVC\nFormat/Info : Advanced Video Codec\nFormat profile : &lt;a class=&quot;__cf_email__&quot; href=&quot;/cdn-cgi/l/email-protection&quot; data-cfemail=&quot;377f5e505f777b031906&quot;&gt;[email&amp;#160;protected]&lt;/a&gt;&lt;script cf-hash='f9e31' type=&quot;text/javascript&quot;&gt;\n/* &lt;![CDATA[ */!function(){try{var t=&quot;currentScript&quot;in document?document.currentScript:function(){for(var t=document.getElementsByTagName(&quot;script&quot;),e=t.length;e--;)if(t[e].getAttribute(&quot;cf-hash&quot;))return t[e]}();if(t&amp;&amp;t.previousSibling){var e,r,n,i,c=t.previousSibling,a=c.getAttribute(&quot;data-cfemail&quot;);if(a){for(e=&quot;&quot;,r=parseInt(a.substr(0,2),16),n=2;a.length-n;n+=2)i=parseInt(a.substr(n,2),16)^r,e+=String.fromCharCode(i);e=document.createTextNode(e),c.parentNode.replaceChild(e,c)}}}catch(u){}}();/* ]]&gt; */&lt;/script&gt;\nFormat settings, CABAC : Yes\nFormat settings, ReFrames : 8 frames\nCodec ID : V_MPEG4/ISO/AVC\nDuration : 2h 2mn\nBit rate : 2 296 Kbps\nWidth : 1 280 pixels\nHeight : 544 pixels\nDisplay aspect ratio : 2.35:1\nFrame rate : 24.000 fps\nColor space : YUV\nChroma subsampling : 4:2:0\nBit depth : 8 bits\nScan type : Progressive\nBits/(Pixel*Frame) : 0.137\nStream size : 1.93 GiB (88%)\nWriting library : x264 core 98 r1649 20cbe10\nLanguage : English\nDefault : No\nForced : No\n\nAudio\nID : 2\nFormat : AC-3\nFormat/Info : Audio Coding 3\nMode extension : CM (complete main)\nCodec ID : A_AC3\nDuration : 2h 2mn\nBit rate mode : Constant\nBit rate : 256 Kbps\nChannel(s) : 6 channels\nChannel positions : Front: L C R, Side: L R, LFE\nSampling rate : 48.0 KHz\nBit depth : 16 bits\nCompression mode : Lossy\nStream size : 224 MiB (10%)\nLanguage : Hindi\nDefault : Yes\nForced : No\n\nRipper : NhaNc3\n\nSeeding 24x7... Extreme Seeding...\n\n\nEnjoy!\n","torrent":{"xt":"urn:btih:84559ee257a35aabe00ed7fca9d1b1802d274b5e","amp;dn":"kites+2010+720p+BluRay+nHD+x264+%28NhaNc3%29+-+Hindi","amp;tr":["udp%3A%2F%2Ftracker.openbittorrent.com%3A80","udp%3A%2F%2Fopen.demonii.com%3A1337","udp%3A%2F%2Ftracker.coppersurfer.tk%3A6969","udp%3A%2F%2Fexodus.desync.com%3A6969"],"infoHash":"84559ee257a35aabe00ed7fca9d1b1802d274b5e","infoHashBuffer":{"type":"Buffer","data":[132,85,158,226,87,163,90,171,224,14,215,252,169,209,177,128,45,39,75,94]},"announce":[],"urlList":[]}}